          <svg version="1.2" baseProfile="tiny" id="Layer_1" xmlns="http://www.w3.org/2000/svg" xmlns:xlink="http://www.w3.org/1999/xlink"
	 x="0px" y="0px" width="130px" height="125px" viewBox="0 23 52 1" xml:space="preserve">
<path fill="#0088df" d="M41.259,5.188h-6.42V3.985c0-2.2-1.788-3.985-3.985-3.985h-7.199c-2.196,0-3.983,1.785-3.983,3.985v1.203
	h-6.227c-2.645,0-4.792,2.15-4.792,4.791v0.173h-1.9c-0.52,0-0.941,0.422-0.941,0.943c0,0.519,0.422,0.941,0.941,0.941h1.9v13.325
	H5.905c-0.52,0-0.941,0.422-0.941,0.941s0.422,0.94,0.941,0.94h2.813c0.316,2,1.867,3.596,3.85,3.963
	c0.413,2.224,2.365,3.915,4.709,3.915c2.313,0,4.25-1.648,4.693-3.832h10.762c0.443,2.184,2.381,3.832,4.694,3.832
	c2.345,0,4.294-1.691,4.706-3.915c2.229-0.413,3.918-2.367,3.918-4.709V9.979C46.051,7.339,43.9,5.188,41.259,5.188z M21.663,3.985
	c0-1.1,0.896-1.994,1.991-1.994h7.197c1.101,0,1.991,0.895,1.991,1.994v1.203h-11.18V3.985z M17.276,33.207
	c-1.585,0-2.874-1.289-2.874-2.875c0-1.585,1.289-2.874,2.874-2.874c1.586,0,2.873,1.289,2.873,2.874
	C20.149,31.918,18.862,33.207,17.276,33.207z M28.796,22.275v7.099h-2.89v-7.099c0-0.25-0.098-0.485-0.276-0.662
	c-0.082-0.082-0.176-0.146-0.28-0.192c-1.828-0.798-3.008-2.602-3.008-4.596c0-1.457,0.627-2.82,1.704-3.764l-0.002,4.259
	c0.002,0.514,0.42,0.931,0.931,0.931h4.754c0.514,0,0.932-0.417,0.932-0.931v-4.259c1.076,0.943,1.701,2.307,1.701,3.764
	c0,1.994-1.18,3.798-3.006,4.596C29.02,21.566,28.801,21.9,28.796,22.275z M37.427,33.207c-1.585,0-2.875-1.289-2.875-2.875
	c0-1.585,1.29-2.874,2.875-2.874s2.875,1.289,2.875,2.874C40.302,31.918,39.012,33.207,37.427,33.207z M44.134,26.499
	c0,1.297-0.868,2.381-2.047,2.739c-0.497-2.114-2.396-3.697-4.66-3.697c-2.313,0-4.251,1.65-4.694,3.833H30.66v-6.521
	c2.203-1.211,3.564-3.5,3.564-6.028c0-2.731-1.619-5.205-4.123-6.298c-0.283-0.125-0.617-0.096-0.887,0.073
	c-0.261,0.175-0.417,0.464-0.417,0.779l-0.002,5.008h-2.89v-5.01c-0.004-0.313-0.158-0.603-0.42-0.777
	c-0.26-0.169-0.596-0.201-0.885-0.073c-2.504,1.095-4.123,3.566-4.123,6.298c0,2.528,1.36,4.817,3.566,6.028l-0.002,6.521H21.97
	c-0.443-2.183-2.381-3.833-4.693-3.833c-2.267,0-4.163,1.583-4.661,3.697c-1.18-0.358-2.047-1.442-2.047-2.739V9.979
	c0-1.585,1.288-2.877,2.875-2.877h27.815c1.585,0,2.875,1.292,2.875,2.877V26.499z"/>
<path fill="#0088df" d="M3.34,25.361L3.34,25.361c-0.519,0-0.94,0.423-0.94,0.943c0,0.52,0.422,0.939,0.94,0.939l0,0
	c0.521,0,0.942-0.42,0.942-0.939C4.282,25.784,3.861,25.361,3.34,25.361z"/>
<path fill="#0088df" d="M7.826,18.042c0-0.519-0.421-0.94-0.94-0.94H0.94c-0.519,0-0.94,0.422-0.94,0.94
	c0,0.521,0.422,0.942,0.94,0.942h5.945C7.405,18.984,7.826,18.563,7.826,18.042z"/>
</svg>