 <svg version="1.2" baseProfile="tiny" id="Layer_1" xmlns="http://www.w3.org/2000/svg" xmlns:xlink="http://www.w3.org/1999/xlink"
	 x="0px" y="0px" width="95px" height="100px" viewBox="0 0 34 40" xml:space="preserve">
<path fill="#0088df" d="M20.2,26.1c0.1-0.199,0.5-0.5,1-0.5s0.899,0.2,1,0.5c0.2,0.301,0.5,0.5,0.8,0.5c0.1,0,0.3,0,0.4-0.1
	c0.199-0.1,0.399-0.3,0.5-0.5c0.1-0.2,0.1-0.5,0-0.7c-0.4-0.899-1.5-1.5-2.7-1.5S19,24.4,18.5,25.3c-0.1,0.2-0.1,0.5,0,0.7
	s0.2,0.4,0.5,0.5c0.1,0.1,0.3,0.1,0.4,0.1C19.7,26.6,20.1,26.4,20.2,26.1z"/>
<path fill="#0088df" d="M12.2,23.7c-1.2,0-2.2,0.6-2.7,1.5c-0.1,0.2-0.1,0.5,0,0.7C9.6,26.1,9.7,26.3,10,26.4
	c0.1,0.1,0.3,0.1,0.4,0.1c0.4,0,0.7-0.2,0.8-0.5c0.1-0.2,0.5-0.5,1-0.5s0.9,0.2,1,0.5c0.2,0.3,0.5,0.5,0.8,0.5c0.1,0,0.3,0,0.4-0.1
	c0.2-0.101,0.4-0.301,0.5-0.5c0.1-0.2,0.1-0.5,0-0.7C14.5,24.3,13.4,23.7,12.2,23.7z"/>
<path fill="#0088df" d="M32.1,22.5c0.2-1.3,0.2-2.5,0.2-3.4c0-3.9-1.6-7.6-4.5-10.3c-1.1-1-2.399-1.9-3.7-2.6c0-3-3.1-6.1-7.5-6.1
	C12,0,9.1,3.2,9.1,6.1C7.7,6.8,6.5,7.7,5.4,8.7C2.5,11.4,0.9,15.1,0.9,19c0,0.8,0.1,2.3,0.2,3.4c-0.7,0.8-1,1.699-1,2.699v1.7
	C0.1,29.1,2,31,4.3,31h1c0.6,3.4,2.6,5.5,4.3,6.7c2.1,1.5,4.7,2.399,7.1,2.399c2.8,0,5.399-0.899,7.5-2.6c2.1-1.7,3.5-4,3.899-6.6
	H29c2.3,0,4.2-1.9,4.2-4.2V25C33.1,24.2,32.8,23.2,32.1,22.5z M28.9,22.8c1.3,0,2.3,1,2.3,2.3v1.7c0,1.3-1,2.3-2.3,2.3h-0.7
	C28.6,26.4,28.8,24,28.9,22.8z M6.2,15L6.2,15L6.2,15L6.2,15z M27.1,20.8c-2.999-0.068-13.2-0.5-19.1-6.7c-0.2-0.2-0.5-0.3-0.8-0.3
	c-0.3,0-0.5,0.1-0.7,0.2c-0.3,0.2-0.4,0.5-0.4,0.8v0.1l0,0l0,0c0,0,0.9,2.7,0.4,4c-0.3,0.9-1.8,1.7-1.8,1.7c-0.5,0-0.8,0-1.3,0.101
	c-0.2,0.1-0.5,0.1-0.7,0.2c0-0.8-0.1-1.7-0.1-2.101c0-3.4,1.4-6.7,3.9-9c2.6-2.4,6.1-3.7,9.9-3.7c3.9,0,7.4,1.3,9.9,3.6
	c2.5,2.3,3.9,5.6,3.9,9c0,0.4,0,1.493-0.101,2.394C29.8,20.993,29.016,20.844,27.1,20.8z M4.9,29.2H4.2c-1.3,0-2.3-1-2.3-2.3v-1.7
	c0-1.3,1-2.3,2.3-2.3h0.1c0,0.399,0.1,0.8,0.1,1.199C4.5,25.3,4.7,26.9,4.9,29.2z M13.7,34.7L13.7,34.7l0.1,0.1
	c0.3,0.601,0.9,1,1.6,1H18c0.9,0,1.8-0.8,1.8-1.8S19,32.2,18,32.2h-2.6c-0.5,0-1,0.2-1.3,0.6H14h-0.1C11.2,32.3,8.7,31.4,7,30.1
	c-0.5-4-0.8-7.399-0.8-7.699l0.2-0.2c0,0,1.3-1,1.9-2.2c0.4-1,0.1-2.7,0.1-2.7c3.1,2.4,7,4.101,11.7,4.9
	c2.801,0.5,5.101,0.6,6.7,0.6L26.9,22.9L26.1,30.8C25.7,34.5,22.2,38.4,16.6,38.4c-3.8,0-7.4-2.2-8.9-5.601
	C7.7,32.7,10,34.2,13.7,34.7z M16.6,4.4c-1.8,0-3.6,0.3-5.4,0.8C11.9,3.6,14,2,16.6,2s4.8,1.7,5.4,3.3C20.3,4.7,18.5,4.4,16.6,4.4z"
	/>
</svg>