<svg version="1.2" baseProfile="tiny" id="Layer_1" xmlns="http://www.w3.org/2000/svg" xmlns:xlink="http://www.w3.org/1999/xlink"
	 x="0px" y="0px" width="100px" height="100px" viewBox="0 0 36.4 36.428" xml:space="preserve">
<path fill="#0088df" d="M10.745,24.357l-6.514,6.549c-0.366,0.369-0.364,0.967,0.004,1.332c0.37,0.367,0.966,0.363,1.332-0.004
	l6.514-6.551c0.365-0.369,0.364-0.963-0.007-1.33C11.707,23.988,11.11,23.988,10.745,24.357z"/>
<path fill="#0088df" d="M35.189,30.305L22.544,18.004l8.06-8.615h1.867c0.35,0,0.668-0.195,0.825-0.508L36.3,2.87
	c0.181-0.354,0.108-0.784-0.173-1.066l-1.502-1.499c-0.273-0.278-0.719-0.349-1.066-0.174l-6.007,3.002
	c-0.31,0.154-0.513,0.48-0.513,0.826v1.872l-8.63,8.15l-2.862-2.786c-0.482-0.469-0.706-1.152-0.597-1.832
	c0.44-2.797-0.32-5.269-2.203-7.15C11.316,0.787,9.507,0,7.644,0H7.522c-1.684,0.039-3.287,0.637-4.64,1.726
	C2.646,1.913,2.52,2.205,2.539,2.51c0.023,0.303,0.189,0.574,0.449,0.728L7.48,5.933C7.324,7.184,6.577,8.274,5.47,8.886
	L1.445,6.467C1.174,6.303,0.779,6.306,0.496,6.462C0.214,6.615,0.034,6.899,0.013,7.223c-0.122,2.141,0.615,4.179,2.08,5.729
	c1.448,1.532,3.485,2.413,5.593,2.413c0.348,0,0.85-0.088,1.58-0.283c0.715-0.193,1.514,0.025,2.028,0.555l2.567,2.641l-1.865,1.762
	c-0.371,0.315-0.835,0.495-1.333,0.495c-0.228,0-0.445,0.084-0.618,0.236l-8.711,7.76c-0.844,0.846-1.33,2.019-1.33,3.22
	c0,1.215,0.467,2.353,1.316,3.198l0.144,0.148c0.843,0.848,2.017,1.33,3.216,1.33c1.216,0,2.365-0.479,3.24-1.355
	c0.077-0.084,7.646-8.442,7.792-8.6c0.16-0.17,0.252-0.402,0.252-0.637c0-0.508,0.19-0.984,0.523-1.363
	c0.003,0,0.007-0.002,0.009-0.004l1.659-1.775l12.16,12.5c0.778,0.777,1.811,1.205,2.908,1.205c1.752,0,3.178-1.426,3.178-3.18
	C36.4,32.137,35.958,31.075,35.189,30.305z M28.619,6.866c0.171-0.173,0.27-0.411,0.27-0.654V4.53l4.903-2.447l0.562,0.558
	l-2.453,4.9h-1.682c-0.246,0-0.479,0.099-0.654,0.273l-8.339,8.904l-1.492-1.449L28.619,6.866z M15.31,23.034
	c-0.014,0.011-0.03,0.016-0.043,0.026c-0.644,0.644-1.044,1.489-1.133,2.395c-0.211,0.232-0.473,0.529-0.842,0.949
	c-0.996,1.125-2.847,3.222-6.705,7.387c-0.478,0.479-1.176,0.754-1.911,0.754c-0.733,0-1.423-0.27-1.893-0.738l-0.146-0.15
	c-0.506-0.508-0.786-1.186-0.786-1.91c0-0.698,0.285-1.405,0.756-1.874l8.432-7.504c0.902-0.084,1.754-0.485,2.401-1.134
	c0.015-0.014,0.017-0.031,0.03-0.047l1.679-1.585l1.72,1.767L15.31,23.034z M33.223,34.55c-0.604,0-1.168-0.231-1.593-0.653
	L12.618,14.35c-0.735-0.756-1.764-1.189-2.813-1.189c-0.34,0-0.682,0.047-1.02,0.136c-0.771,0.209-1.038,0.225-1.101,0.225
	c-1.623,0-3.131-0.654-4.248-1.838c-0.73-0.774-1.229-1.715-1.454-2.739l2.976,1.785c0.262,0.159,0.605,0.172,0.886,0.037
	l0.318-0.162c1.973-0.987,3.196-2.97,3.196-5.175c0-0.326-0.168-0.623-0.445-0.79L5.212,2.419c0.741-0.362,1.531-0.553,2.349-0.57
	h0.106c1.392,0,2.661,0.565,3.775,1.676c1.466,1.465,2.03,3.334,1.678,5.552c-0.2,1.271,0.226,2.56,1.136,3.445L33.889,31.62
	c0.428,0.43,0.666,0.998,0.666,1.601C34.555,33.955,33.957,34.55,33.223,34.55z"/>
</svg>