<svg version="1.2" baseProfile="tiny" xmlns="http://www.w3.org/2000/svg" width="135" height="115" viewBox="-2 23 56 1"><path fill="#0088df" d="M41.259 5.188h-6.42V3.985c0-2.2-1.788-3.985-3.985-3.985h-7.199a3.987 3.987 0 0 0-3.983 3.985v1.203h-6.227a4.796 4.796 0 0 0-4.792 4.791v.173h-1.9a.942.942 0 0 0 0 1.884h1.9v13.325H5.905a.941.941 0 0 0 0 1.881h2.813a4.798 4.798 0 0 0 3.85 3.963 4.797 4.797 0 0 0 4.709 3.915 4.796 4.796 0 0 0 4.693-3.832h10.762a4.797 4.797 0 0 0 4.694 3.832 4.792 4.792 0 0 0 4.706-3.915 4.797 4.797 0 0 0 3.918-4.709V9.979a4.797 4.797 0 0 0-4.791-4.791zM21.663 3.985c0-1.1.896-1.994 1.991-1.994h7.197c1.101 0 1.991.895 1.991 1.994v1.203h-11.18V3.985zm-4.387 29.222a2.877 2.877 0 0 1-2.874-2.875 2.877 2.877 0 0 1 2.874-2.874 2.875 2.875 0 0 1 0 5.749zm11.52-10.932v7.099h-2.89v-7.099a.927.927 0 0 0-.556-.854 5.013 5.013 0 0 1-1.304-8.36l-.002 4.259c.002.514.42.931.931.931h4.754a.932.932 0 0 0 .932-.931v-4.259a4.994 4.994 0 0 1 1.701 3.764 5.015 5.015 0 0 1-3.006 4.596.938.938 0 0 0-.56.854zm8.631 10.932a2.878 2.878 0 0 1-2.875-2.875c0-1.585 1.29-2.874 2.875-2.874s2.875 1.289 2.875 2.874a2.878 2.878 0 0 1-2.875 2.875zm6.707-6.708a2.87 2.87 0 0 1-2.047 2.739 4.798 4.798 0 0 0-4.66-3.697 4.799 4.799 0 0 0-4.694 3.833H30.66v-6.521a6.85 6.85 0 0 0 3.564-6.028 6.874 6.874 0 0 0-4.123-6.298.953.953 0 0 0-.887.073.934.934 0 0 0-.417.779l-.002 5.008h-2.89v-5.01a.942.942 0 0 0-.42-.777.937.937 0 0 0-.885-.073 6.875 6.875 0 0 0-4.123 6.298 6.846 6.846 0 0 0 3.566 6.028l-.002 6.521H21.97a4.798 4.798 0 0 0-4.693-3.833 4.798 4.798 0 0 0-4.661 3.697 2.868 2.868 0 0 1-2.047-2.739V9.979a2.879 2.879 0 0 1 2.875-2.877h27.815a2.88 2.88 0 0 1 2.875 2.877v16.52zM3.34 25.361a.942.942 0 0 0 0 1.882.94.94 0 1 0 0-1.882z"/><path fill="#0088df" d="M7.826 18.042a.94.94 0 0 0-.94-.94H.94a.94.94 0 0 0 0 1.882h5.945a.94.94 0 0 0 .941-.942z"/></svg>