<svg version="1.2" baseProfile="tiny" xmlns="http://www.w3.org/2000/svg" width="95" height="100" viewBox="0 0 34 40"><path fill="#0088df" d="M20.2 26.1c.1-.199.5-.5 1-.5s.899.2 1 .5c.2.301.5.5.8.5.1 0 .3 0 .4-.1.199-.1.399-.3.5-.5.1-.2.1-.5 0-.7-.4-.899-1.5-1.5-2.7-1.5s-2.2.6-2.7 1.5c-.1.2-.1.5 0 .7s.2.4.5.5c.1.1.3.1.4.1.3 0 .7-.2.8-.5zm-8-2.4c-1.2 0-2.2.6-2.7 1.5-.1.2-.1.5 0 .7.1.2.2.4.5.5.1.1.3.1.4.1.4 0 .7-.2.8-.5.1-.2.5-.5 1-.5s.9.2 1 .5c.2.3.5.5.8.5.1 0 .3 0 .4-.1.2-.101.4-.301.5-.5.1-.2.1-.5 0-.7-.4-.9-1.5-1.5-2.7-1.5z"/><path fill="#0088df" d="M32.1 22.5c.2-1.3.2-2.5.2-3.4 0-3.9-1.6-7.6-4.5-10.3-1.1-1-2.399-1.9-3.7-2.6 0-3-3.1-6.1-7.5-6.1-4.6-.1-7.5 3.1-7.5 6-1.4.7-2.6 1.6-3.7 2.6C2.5 11.4.9 15.1.9 19c0 .8.1 2.3.2 3.4-.7.8-1 1.699-1 2.699v1.7C.1 29.1 2 31 4.3 31h1c.6 3.4 2.6 5.5 4.3 6.7 2.1 1.5 4.7 2.399 7.1 2.399 2.8 0 5.399-.899 7.5-2.6 2.1-1.7 3.5-4 3.899-6.6H29c2.3 0 4.2-1.9 4.2-4.2V25c-.1-.8-.4-1.8-1.1-2.5zm-3.2.3c1.3 0 2.3 1 2.3 2.3v1.7c0 1.3-1 2.3-2.3 2.3h-.7c.4-2.7.6-5.1.7-6.3zM6.2 15zm20.9 5.8c-2.999-.068-13.2-.5-19.1-6.7-.2-.2-.5-.3-.8-.3-.3 0-.5.1-.7.2-.3.2-.4.5-.4.8v.1s.9 2.7.4 4c-.3.9-1.8 1.7-1.8 1.7-.5 0-.8 0-1.3.101-.2.1-.5.1-.7.2 0-.8-.1-1.7-.1-2.101 0-3.4 1.4-6.7 3.9-9 2.6-2.4 6.1-3.7 9.9-3.7 3.9 0 7.4 1.3 9.9 3.6s3.9 5.6 3.9 9c0 .4 0 1.493-.101 2.394-.299-.101-1.083-.25-2.999-.294zM4.9 29.2h-.7c-1.3 0-2.3-1-2.3-2.3v-1.7c0-1.3 1-2.3 2.3-2.3h.1c0 .399.1.8.1 1.199.1 1.201.3 2.801.5 5.101zm8.8 5.5l.1.1c.3.601.9 1 1.6 1H18c.9 0 1.8-.8 1.8-1.8s-.8-1.8-1.8-1.8h-2.6c-.5 0-1 .2-1.3.6h-.2c-2.7-.5-5.2-1.4-6.9-2.7-.5-4-.8-7.399-.8-7.699l.2-.2s1.3-1 1.9-2.2c.4-1 .1-2.7.1-2.7 3.1 2.4 7 4.101 11.7 4.9 2.801.5 5.101.6 6.7.6l.1.099-.8 7.9c-.4 3.7-3.9 7.6-9.5 7.6-3.8 0-7.4-2.2-8.9-5.601 0-.099 2.3 1.401 6 1.901zm2.9-30.3c-1.8 0-3.6.3-5.4.8C11.9 3.6 14 2 16.6 2s4.8 1.7 5.4 3.3c-1.7-.6-3.5-.9-5.4-.9z"/></svg>