<svg version="1.2" baseProfile="tiny" xmlns="http://www.w3.org/2000/svg" width="100" height="100" viewBox="0 0 36.4 36.428"><path fill="#0088df" d="M10.745 24.357l-6.514 6.549a.943.943 0 0 0 .004 1.332.943.943 0 0 0 1.332-.004l6.514-6.551a.94.94 0 0 0-.007-1.33.94.94 0 0 0-1.329.004z"/><path fill="#0088df" d="M35.189 30.305L22.544 18.004l8.06-8.615h1.867a.92.92 0 0 0 .825-.508L36.3 2.87a.92.92 0 0 0-.173-1.066L34.625.305a.933.933 0 0 0-1.066-.174l-6.007 3.002a.933.933 0 0 0-.513.826v1.872l-8.63 8.15-2.862-2.786a2.09 2.09 0 0 1-.597-1.832c.44-2.797-.32-5.269-2.203-7.15C11.316.787 9.507 0 7.644 0h-.122c-1.684.039-3.287.637-4.64 1.726a.922.922 0 0 0 .106 1.512L7.48 5.933a3.927 3.927 0 0 1-2.01 2.953L1.445 6.467c-.271-.164-.666-.161-.949-.005a.926.926 0 0 0-.483.761 7.63 7.63 0 0 0 2.08 5.729 7.727 7.727 0 0 0 5.593 2.413c.348 0 .85-.088 1.58-.283a2.104 2.104 0 0 1 2.028.555l2.567 2.641-1.865 1.762a2.049 2.049 0 0 1-1.333.495.933.933 0 0 0-.618.236l-8.711 7.76a4.59 4.59 0 0 0-1.33 3.22c0 1.215.467 2.353 1.316 3.198l.144.148a4.55 4.55 0 0 0 6.456-.025c.077-.084 7.646-8.442 7.792-8.6a.938.938 0 0 0 .252-.637c0-.508.19-.984.523-1.363a.015.015 0 0 0 .009-.004l1.659-1.775 12.16 12.5a4.09 4.09 0 0 0 2.908 1.205 3.182 3.182 0 0 0 3.178-3.18 4.16 4.16 0 0 0-1.212-2.913zm-6.57-23.439a.938.938 0 0 0 .27-.654V4.53l4.903-2.447.562.558-2.453 4.9h-1.682a.926.926 0 0 0-.654.273l-8.339 8.904-1.492-1.449 8.885-8.403zM15.31 23.034c-.014.011-.03.016-.043.026a3.928 3.928 0 0 0-1.133 2.395c-.211.232-.473.529-.842.949-.996 1.125-2.847 3.222-6.705 7.387-.478.479-1.176.754-1.911.754-.733 0-1.423-.27-1.893-.738l-.146-.15a2.688 2.688 0 0 1-.786-1.91c0-.698.285-1.405.756-1.874l8.432-7.504a3.908 3.908 0 0 0 2.401-1.134c.015-.014.017-.031.03-.047l1.679-1.585 1.72 1.767-1.559 1.664zM33.223 34.55a2.241 2.241 0 0 1-1.593-.653L12.618 14.35a3.951 3.951 0 0 0-2.813-1.189c-.34 0-.682.047-1.02.136-.771.209-1.038.225-1.101.225a5.788 5.788 0 0 1-4.248-1.838 5.796 5.796 0 0 1-1.454-2.739l2.976 1.785a.945.945 0 0 0 .886.037l.318-.162A5.753 5.753 0 0 0 9.358 5.43a.918.918 0 0 0-.445-.79L5.212 2.419a5.577 5.577 0 0 1 2.349-.57h.106c1.392 0 2.661.565 3.775 1.676 1.466 1.465 2.03 3.334 1.678 5.552a3.953 3.953 0 0 0 1.136 3.445L33.889 31.62c.428.43.666.998.666 1.601 0 .734-.598 1.329-1.332 1.329z"/></svg>